# Blender v2.91.0 OBJ File: ''
# www.blender.org
mtllib tile1.mtl
o Incredible_Jofo(1).002
v -0.038700 0.077400 -0.039600
v 0.040020 0.080040 -0.039120
v 0.038700 0.077400 -0.039600
v -0.037310 0.074620 -0.039900
v 0.037310 0.074620 -0.039900
v 0.035880 0.071770 -0.040000
v -0.035880 0.071770 -0.040000
v -0.045000 0.090000 0.031900
v -0.044890 0.089780 0.033160
v 0.045000 0.090000 0.031900
v -0.040020 0.080040 0.039120
v 0.038700 0.077400 0.039600
v 0.040020 0.080040 0.039120
v 0.035880 -0.071770 -0.040000
v 0.037310 -0.074620 -0.039900
v -0.038700 -0.077400 -0.039600
v -0.040020 -0.080040 -0.039120
v -0.037310 -0.074620 -0.039900
v 0.038700 -0.077400 -0.039600
v 0.044010 -0.088010 -0.035580
v 0.044010 0.088010 -0.035580
v 0.044550 -0.089110 -0.034400
v -0.035880 -0.071770 -0.040000
v 0.043260 -0.086520 -0.036660
v 0.043260 0.086520 -0.036660
v -0.044890 -0.089780 -0.033160
v -0.044550 0.089110 -0.034400
v -0.044550 -0.089110 -0.034400
v -0.044010 -0.088010 -0.035580
v -0.043260 -0.086520 -0.036660
v -0.042330 -0.084660 -0.037630
v 0.044890 -0.089780 -0.033160
v 0.045000 -0.090000 -0.031900
v 0.042330 -0.084660 -0.037630
v 0.041240 -0.082480 -0.038450
v -0.041240 -0.082480 -0.038450
v 0.040020 -0.080040 -0.039120
v 0.041240 0.082480 0.038450
v -0.041240 0.082480 0.038450
v -0.042330 0.084660 0.037630
v 0.042330 0.084660 0.037630
v 0.043260 0.086520 0.036660
v 0.044890 0.089780 0.033160
v 0.044550 0.089110 0.034400
v -0.044010 0.088010 -0.035580
v 0.044550 0.089110 -0.034400
v -0.041240 0.082480 -0.038450
v 0.041240 0.082480 -0.038450
v -0.045000 0.090000 -0.031900
v 0.045000 0.090000 -0.031900
v -0.044890 0.089780 -0.033160
v 0.044890 0.089780 -0.033160
v 0.045000 -0.090000 0.031900
v 0.044890 -0.089780 0.033160
v -0.044010 -0.088010 0.035580
v 0.044010 -0.088010 0.035580
v 0.043260 -0.086520 0.036660
v 0.044550 -0.089110 0.034400
v 0.035880 -0.071770 0.040000
v -0.035880 -0.071770 0.040000
v 0.037310 -0.074620 0.039900
v -0.037310 -0.074620 0.039900
v 0.038700 -0.077400 0.039600
v -0.038700 -0.077400 0.039600
v -0.040020 -0.080040 0.039120
v -0.043260 -0.086520 0.036660
v -0.045000 -0.090000 -0.031900
v -0.043260 0.086520 -0.036660
v -0.042330 0.084660 -0.037630
v -0.040020 0.080040 -0.039120
v -0.045000 -0.090000 0.031900
v 0.042330 -0.084660 0.037630
v -0.044890 -0.089780 0.033160
v -0.044550 -0.089110 0.034400
v -0.035880 0.071770 0.040000
v -0.043260 0.086520 0.036660
v -0.044010 0.088010 0.035580
v 0.035880 0.071770 0.040000
v 0.040020 -0.080040 0.039120
v -0.041240 -0.082480 0.038450
v 0.041240 -0.082480 0.038450
v -0.042330 -0.084660 0.037630
v 0.044010 0.088010 0.035580
v -0.044550 0.089110 0.034400
v -0.038700 0.077400 0.039600
v -0.037310 0.074620 0.039900
v 0.037310 0.074620 0.039900
v 0.042330 0.084660 -0.037630
vt 0.209389 0.943541
vt 0.816610 0.961946
vt 0.806357 0.946612
vt 0.220079 0.927504
vt 0.795606 0.930464
vt 0.784593 0.913910
vt 0.231124 0.911063
vt 1.542416 1.048586
vt 1.541584 1.041498
vt 0.847980 1.045014
vt 0.134323 0.964805
vt -0.473041 0.946398
vt -0.483261 0.961628
vt 0.786474 0.083013
vt 0.797563 0.066572
vt 0.211418 0.047465
vt 0.201378 0.032131
vt 0.222037 0.063612
vt 0.808386 0.050535
vt 0.866163 0.000935
vt 0.863855 1.019846
vt 0.875282 -0.005386
vt 0.233006 0.080166
vt 0.857810 0.009517
vt 0.855542 1.011178
vt 1.977285 -0.003597
vt 1.984507 1.031976
vt 1.986843 0.000332
vt 1.995933 0.006746
vt 0.844328 -0.002073
vt 0.171494 -0.014159
vt 0.177019 -0.005505
vt 0.183953 0.005297
vt -0.518363 1.401610
vt 0.174376 1.405173
vt 0.175241 1.397782
vt 0.171734 1.412759
vt -0.515756 1.409223
vt 0.167552 1.420297
vt -0.511606 1.416804
vt 0.850371 -0.010667
vt 0.836915 0.008655
vt 0.828299 0.021231
vt 0.192150 0.017959
vt 0.818708 0.035306
vt -0.492707 0.975704
vt 0.143705 0.978978
vt 0.152086 0.991639
vt -0.501146 0.988279
vt -0.508346 0.999010
vt 0.848845 1.037935
vt 0.851484 1.031301
vt 0.854738 1.434136
vt 1.533897 1.437630
vt 0.850589 1.426555
vt 0.189987 0.972848
vt 0.826137 0.976120
vt 1.541586 1.415115
vt 0.847151 1.411543
vt 1.540721 1.422505
vt 0.847982 1.418942
vt 1.538079 1.430091
vt 1.386861 -0.007907
vt 1.384502 1.034042
vt 1.396581 -0.006584
vt 0.848064 1.008244
vt 0.842060 0.999588
vt 0.169187 1.004752
vt 0.167313 -0.007812
vt -0.511845 -0.011306
vt -0.506078 -0.002651
vt -0.515997 -0.017695
vt -0.449327 0.083024
vt 0.104369 0.085872
vt -0.460324 0.066470
vt 0.115440 0.069431
vt -0.471012 0.050322
vt 0.126202 0.053394
vt 0.136422 0.038165
vt 0.161506 0.000783
vt 1.967565 -0.004920
vt 1.974930 1.035806
vt 1.993626 1.025657
vt 2.001979 1.017075
vt 2.004247 0.015414
vt -0.519195 1.394210
vt 2.009488 1.006346
vt 2.011708 0.026219
vt 0.181734 0.985425
vt 0.199280 0.958771
vt 1.965205 1.037029
vt 1.472928 1.034497
vt 1.475288 -0.007452
vt -0.498927 0.008152
vt -0.517500 1.020603
vt 0.175238 1.024166
vt -0.514861 1.013968
vt 0.102488 0.916769
vt 1.438513 0.012504
vt 1.436245 1.014165
vt 1.444559 1.022833
vt -0.451209 0.913921
vt -0.481163 0.034988
vt 0.159238 1.002444
vt 0.145867 0.024089
vt -0.490545 0.020815
vt 0.154307 0.011512
vt 0.165006 1.011098
vt -0.514152 1.007605
vt 0.171494 -0.014159
vt -0.518334 1.013951
vt 0.169158 1.017488
vt 1.538975 1.034837
vt 1.431005 0.023232
vt 1.428785 1.003359
vt 1.446867 0.003922
vt 1.453650 1.029245
vt 0.172629 1.017504
vt -0.518365 1.027681
vt 0.176071 1.031253
vt 0.124173 0.949470
vt 0.113484 0.933323
vt -0.462280 0.930361
vt 0.894584 -0.010439
vt 0.892224 1.031510
vt 1.465562 -0.006229
vt 1.463208 1.033174
vt 1.455986 -0.002399
vt 0.884858 -0.009216
vt 0.882505 1.030187
vt 0.872946 1.026258
vt 0.174751 0.996156
vt 0.850301 0.020245
vt 0.848082 1.000371
vt 0.834696 0.988784
vt 1.428784 1.003359
vt 1.431004 0.023232
vt 1.421276 1.014088
vt 1.423544 0.012427
vt 1.415230 0.003759
vt 1.412922 1.022670
vt 1.403803 1.028989
vt 1.406140 -0.002655
vt 1.394227 1.032819
vn 0.0000 0.1789 -0.9839
vn 0.0000 0.1073 -0.9942
vn 0.0000 0.0351 -0.9994
vn 0.0000 0.9851 0.1720
vn 0.0000 0.1789 0.9839
vn 0.0698 0.0000 -0.9976
vn -0.3417 0.0000 -0.9398
vn 0.0000 -0.1073 -0.9942
vn 0.9093 0.0000 -0.4161
vn -0.2110 0.0000 -0.9775
vn 0.0000 -0.0351 -0.9994
vn 0.8214 0.0000 -0.5704
vn -0.9644 0.0000 -0.2644
vn -0.9093 0.0000 -0.4161
vn 0.0000 -0.5869 -0.8097
vn 0.0000 -0.4624 -0.8867
vn 0.0000 -0.9851 -0.1720
vn 0.0000 -0.8798 -0.4754
vn 0.0000 -0.7315 -0.6819
vn 0.0000 -0.3521 -0.9360
vn 0.0000 -0.2648 -0.9643
vn 0.0000 -0.1789 -0.9839
vn 0.0000 0.2648 0.9643
vn 0.0000 0.3521 0.9360
vn 0.0000 0.4624 0.8867
vn 0.0000 0.8798 0.4754
vn 0.0000 0.7315 -0.6819
vn 0.0000 0.2648 -0.9643
vn 0.0000 0.9851 -0.1720
vn 0.0000 0.8798 -0.4754
vn 0.9962 0.0000 0.0870
vn 0.0000 0.5869 -0.8097
vn 0.0000 -0.5869 0.8097
vn 0.0000 -0.7315 0.6819
vn 0.0000 -0.0351 0.9994
vn 0.0000 -0.1073 0.9942
vn 0.0000 -0.1789 0.9839
vn -0.6012 0.0000 -0.7991
vn -0.9962 0.0000 -0.0870
vn -0.4814 0.0000 -0.8765
vn -0.8214 0.0000 -0.5704
vn -0.7218 0.0000 -0.6921
vn -1.0000 0.0000 0.0000
vn -0.0698 0.0000 -0.9976
vn -0.0697 0.0000 -0.9976
vn 0.0000 -0.4624 0.8867
vn 0.0000 -0.8798 0.4754
vn -0.0698 0.0000 0.9976
vn -0.8214 0.0000 0.5704
vn 0.0000 0.0000 1.0000
vn 0.0000 -0.2648 0.9643
vn 0.0000 -0.3521 0.9360
vn 0.0000 0.5869 0.8097
vn 0.0000 0.7315 0.6819
vn -0.6012 0.0000 0.7991
vn -0.7218 0.0000 0.6921
vn -0.9093 0.0000 0.4161
vn 0.0000 -0.9851 0.1720
vn -0.3417 0.0000 0.9398
vn -0.4814 0.0000 0.8765
vn 0.0000 0.1073 0.9942
vn 0.0000 -1.0000 0.0000
vn 1.0000 0.0000 0.0000
vn -0.9644 0.0000 0.2644
vn -0.9962 0.0000 0.0870
vn -0.0697 0.0000 0.9976
vn 0.0000 0.0351 0.9994
vn -0.2110 0.0000 0.9775
vn 0.0000 0.0000 -1.0000
vn 0.0000 1.0000 0.0000
vn 0.9962 0.0000 -0.0870
vn 0.9644 0.0000 -0.2644
vn 0.7218 0.0000 -0.6921
vn 0.0000 0.4624 -0.8867
vn 0.6012 0.0000 -0.7991
vn 0.0000 0.3521 -0.9360
vn 0.4814 0.0000 -0.8765
vn 0.3417 0.0000 -0.9398
vn 0.2110 0.0000 -0.9775
vn 0.0697 0.0000 -0.9976
vn 0.0698 0.0000 0.9976
vn 0.0697 0.0000 0.9976
vn 0.2110 0.0000 0.9775
vn 0.3417 0.0000 0.9398
vn 0.4814 0.0000 0.8765
vn 0.6012 0.0000 0.7991
vn 0.7218 0.0000 0.6921
vn 0.8214 0.0000 0.5704
vn 0.9093 0.0000 0.4161
vn 0.9644 0.0000 0.2644
usemtl Material.003
s off
f 1/1/1 2/2/1 3/3/1
f 1/1/2 3/3/2 4/4/2
f 5/5/2 4/4/2 3/3/2
f 6/6/3 7/7/3 5/5/3
f 8/8/4 9/9/4 10/10/4
f 11/11/5 12/12/5 13/13/5
f 14/14/6 6/6/6 15/15/6
f 1/1/7 16/16/7 17/17/7
f 16/16/8 18/18/8 19/19/8
f 20/20/9 21/21/9 22/22/9
f 16/16/10 1/1/10 18/18/10
f 14/14/11 15/15/11 23/23/11
f 24/24/12 25/25/12 21/21/12
f 24/24/12 21/21/12 20/20/12
f 26/26/13 27/27/13 28/28/13
f 27/27/14 29/29/14 28/28/14
f 24/30/15 29/31/15 30/32/15
f 24/30/16 30/32/16 31/33/16
f 26/34/17 32/35/17 33/36/17
f 32/35/18 26/34/18 22/37/18
f 28/38/18 22/37/18 26/34/18
f 20/39/19 22/37/19 29/40/19
f 28/38/19 29/40/19 22/37/19
f 29/31/15 24/30/15 20/41/15
f 24/30/16 31/33/16 34/42/16
f 34/42/20 31/33/20 35/43/20
f 36/44/20 35/43/20 31/33/20
f 37/45/21 35/43/21 17/17/21
f 36/44/21 17/17/21 35/43/21
f 17/17/22 19/19/22 37/45/22
f 18/18/8 15/15/8 19/19/8
f 18/18/11 23/23/11 15/15/11
f 38/46/23 39/47/23 13/13/23
f 39/47/24 38/46/24 40/48/24
f 40/48/25 41/49/25 42/50/25
f 43/51/26 9/9/26 44/52/26
f 43/51/4 10/10/4 9/9/4
f 21/53/27 45/54/27 46/55/27
f 47/56/28 48/57/28 2/2/28
f 4/4/3 5/5/3 7/7/3
f 49/58/29 50/59/29 51/60/29
f 52/61/30 27/62/30 51/60/30
f 27/62/27 46/55/27 45/54/27
f 53/63/31 10/64/31 54/65/31
f 21/66/32 25/67/32 45/68/32
f 55/69/33 56/70/33 57/71/33
f 55/69/34 58/72/34 56/70/34
f 59/73/35 60/74/35 61/75/35
f 61/75/36 62/76/36 63/77/36
f 64/78/36 63/77/36 62/76/36
f 64/78/37 65/79/37 63/77/37
f 57/71/33 66/80/33 55/69/33
f 47/56/38 36/44/38 31/33/38
f 26/26/39 67/81/39 51/82/39
f 36/44/40 47/56/40 17/17/40
f 26/26/13 51/82/13 27/27/13
f 19/19/22 17/17/22 16/16/22
f 29/29/14 27/27/14 45/83/14
f 68/84/41 30/85/41 45/83/41
f 29/29/41 45/83/41 30/85/41
f 67/86/17 26/34/17 33/36/17
f 68/84/42 69/87/42 30/85/42
f 31/88/42 30/85/42 69/87/42
f 31/33/38 69/89/38 47/56/38
f 17/17/40 47/56/40 70/90/40
f 47/56/28 2/2/28 70/90/28
f 49/91/43 67/81/43 8/92/43
f 17/17/7 70/90/7 1/1/7
f 2/2/1 1/1/1 70/90/1
f 18/18/10 1/1/10 4/4/10
f 62/76/35 61/75/35 60/74/35
f 7/7/44 23/23/44 4/4/44
f 18/18/45 4/4/45 23/23/45
f 71/93/43 8/92/43 67/81/43
f 67/81/39 49/91/39 51/82/39
f 51/60/29 50/59/29 52/61/29
f 57/71/46 72/94/46 66/80/46
f 11/11/23 13/13/23 39/47/23
f 73/95/47 54/96/47 74/97/47
f 41/49/24 40/48/24 38/46/24
f 75/98/48 62/76/48 60/74/48
f 66/99/49 76/100/49 77/101/49
f 59/73/50 78/102/50 75/98/50
f 79/103/37 63/77/37 65/79/37
f 42/50/25 76/104/25 40/48/25
f 80/105/51 81/106/51 65/79/51
f 80/105/52 82/107/52 81/106/52
f 76/104/53 42/50/53 77/108/53
f 83/109/53 77/108/53 42/50/53
f 74/110/34 58/72/34 55/69/34
f 79/103/51 65/79/51 81/106/51
f 60/74/50 59/73/50 75/98/50
f 83/109/54 44/111/54 77/108/54
f 84/112/54 77/108/54 44/111/54
f 72/94/52 81/106/52 82/107/52
f 40/48/55 82/107/55 80/105/55
f 82/107/46 66/80/46 72/94/46
f 9/9/26 84/113/26 44/52/26
f 66/99/56 82/114/56 40/115/56
f 77/101/49 55/116/49 66/99/49
f 77/101/57 84/117/57 55/116/57
f 58/118/47 74/97/47 54/96/47
f 73/95/58 71/119/58 54/96/58
f 53/120/58 54/96/58 71/119/58
f 64/78/59 11/11/59 65/79/59
f 80/105/60 65/79/60 11/11/60
f 85/121/61 86/122/61 12/12/61
f 87/123/61 12/12/61 86/122/61
f 67/86/62 33/36/62 53/120/62
f 12/12/5 11/11/5 85/121/5
f 67/86/62 53/120/62 71/119/62
f 76/100/56 66/99/56 40/115/56
f 33/124/63 50/125/63 10/64/63
f 33/124/63 10/64/63 53/63/63
f 73/126/64 84/117/64 9/127/64
f 73/126/65 9/127/65 8/92/65
f 62/76/66 75/98/66 86/122/66
f 86/122/67 75/98/67 87/123/67
f 78/102/67 87/123/67 75/98/67
f 62/76/68 86/122/68 64/78/68
f 85/121/68 64/78/68 86/122/68
f 64/78/59 85/121/59 11/11/59
f 80/105/60 11/11/60 39/47/60
f 6/6/69 14/14/69 7/7/69
f 39/47/55 40/48/55 80/105/55
f 14/14/69 23/23/69 7/7/69
f 74/128/57 55/116/57 84/117/57
f 50/59/70 49/58/70 10/10/70
f 8/8/70 10/10/70 49/58/70
f 74/128/64 84/117/64 73/126/64
f 8/92/65 71/93/65 73/126/65
f 32/129/71 52/130/71 50/125/71
f 46/131/72 32/129/72 22/22/72
f 27/62/30 52/61/30 46/55/30
f 52/130/72 32/129/72 46/131/72
f 22/22/9 21/21/9 46/131/9
f 68/132/32 45/68/32 25/67/32
f 24/24/73 34/133/73 25/25/73
f 88/134/73 25/25/73 34/133/73
f 68/132/74 25/67/74 69/89/74
f 88/135/74 69/89/74 25/67/74
f 34/42/75 35/43/75 48/57/75
f 34/42/75 48/57/75 88/135/75
f 69/89/76 88/135/76 48/57/76
f 2/2/77 48/57/77 37/45/77
f 35/43/77 37/45/77 48/57/77
f 50/125/71 33/124/71 32/129/71
f 2/2/78 37/45/78 3/3/78
f 19/19/78 3/3/78 37/45/78
f 19/19/79 15/15/79 3/3/79
f 5/5/79 3/3/79 15/15/79
f 47/56/76 69/89/76 48/57/76
f 15/15/80 6/6/80 5/5/80
f 78/102/81 59/73/81 87/123/81
f 61/75/82 87/123/82 59/73/82
f 63/77/83 12/12/83 87/123/83
f 63/77/83 87/123/83 61/75/83
f 63/77/84 79/103/84 12/12/84
f 13/13/84 12/12/84 79/103/84
f 79/103/85 81/106/85 13/13/85
f 38/46/85 13/13/85 81/106/85
f 38/46/86 81/106/86 41/49/86
f 72/94/86 41/49/86 81/106/86
f 41/136/87 72/137/87 42/138/87
f 57/139/87 42/138/87 72/137/87
f 57/139/88 56/140/88 42/138/88
f 83/141/88 42/138/88 56/140/88
f 83/141/89 56/140/89 44/142/89
f 58/143/89 44/142/89 56/140/89
f 44/142/90 58/143/90 43/144/90
f 54/65/90 43/144/90 58/143/90
f 10/64/31 43/144/31 54/65/31
